<svg width="20" height="20" viewBox="0 0 20 20" fill="none" xmlns="http://www.w3.org/2000/svg">
  <path fill-rule="evenodd" clip-rule="evenodd" d="M8.29672 3.69858C8.29672 2.76049 9.0572 2 9.99533 2C10.9335 2 11.6939 2.76049 11.6939 3.69858V4.60067C11.6939 5.15295 12.1417 5.60067 12.6939 5.60067C13.2462 5.60067 13.6939 5.15295 13.6939 4.60067V3.69858C13.6939 1.6559 12.038 0 9.99533 0C7.95266 0 6.29672 1.6559 6.29672 3.69858V9.96701C6.29672 10.5193 6.74443 10.967 7.29672 10.967C7.849 10.967 8.29672 10.5193 8.29672 9.96701V3.69858ZM13.6939 9.99707C13.6939 9.44479 13.2462 8.99707 12.6939 8.99707C12.1417 8.99707 11.6939 9.44479 11.6939 9.99707V16.2922C11.6939 17.2303 10.9334 17.9908 9.99533 17.9908C9.05721 17.9908 8.29672 17.2303 8.29672 16.2922V15.3792C8.29672 14.8269 7.849 14.3792 7.29672 14.3792C6.74443 14.3792 6.29672 14.8269 6.29672 15.3792V16.2922C6.29672 18.3349 7.95266 19.9908 9.99533 19.9908C12.038 19.9908 13.6939 18.3349 13.6939 16.2922V9.99707ZM3.69149 8.29712C2.7598 8.29712 2.00002 9.05512 2.00002 9.9957C2.00002 10.9363 2.7598 11.6943 3.69149 11.6943H9.99538C10.5477 11.6943 10.9954 12.142 10.9954 12.6943C10.9954 13.2466 10.5477 13.6943 9.99538 13.6943H3.69149C1.65026 13.6943 1.52588e-05 12.0359 1.52588e-05 9.9957C1.52588e-05 7.95552 1.65026 6.29712 3.69149 6.29712H4.59303C5.14532 6.29712 5.59303 6.74483 5.59303 7.29712C5.59303 7.8494 5.14532 8.29712 4.59303 8.29712H3.69149ZM9.99536 6.29712C9.44307 6.29712 8.99536 6.74483 8.99536 7.29712C8.99536 7.8494 9.44307 8.29712 9.99536 8.29712H16.2871C17.2297 8.29712 17.9907 9.05937 17.9907 9.9957C17.9907 10.932 17.2297 11.6943 16.2871 11.6943H15.4224C14.8701 11.6943 14.4224 12.142 14.4224 12.6943C14.4224 13.2466 14.8701 13.6943 15.4224 13.6943H16.2871C18.3308 13.6943 19.9907 12.0401 19.9907 9.9957C19.9907 7.95127 18.3308 6.29712 16.2871 6.29712H9.99536Z" fill="currentColor"/>
</svg>
