<svg width="20" height="20" viewBox="0 0 20 20" fill="none" xmlns="http://www.w3.org/2000/svg">
  <g clip-path="url(#clip0_468_230)" fill="currentColor">
    <path d="M5.17608 5.29078C4.92131 5.07918 4.5931 4.97709 4.26326 5.00683C3.93341 5.03656 3.62876 5.19571 3.41594 5.44946L0.291125 9.19923C0.103064 9.42368 0 9.70715 0 9.99996C0 10.2928 0.103064 10.5763 0.291125 10.8007L3.41594 14.5505C3.52077 14.6775 3.64967 14.7825 3.79523 14.8595C3.94079 14.9366 4.10013 14.9841 4.26411 14.9993C4.42809 15.0145 4.59346 14.9972 4.75072 14.9483C4.90798 14.8994 5.05402 14.8199 5.18045 14.7144C5.30688 14.6089 5.41121 14.4794 5.48744 14.3334C5.56366 14.1874 5.61028 14.0278 5.62462 13.8638C5.63895 13.6997 5.62071 13.5344 5.57096 13.3774C5.5212 13.2205 5.44091 13.0749 5.33469 12.949L2.87642 10L5.33475 7.05096C5.54705 6.79647 5.64959 6.46809 5.61983 6.13802C5.59008 5.80795 5.43047 5.5032 5.17608 5.29078Z"/>
    <path d="M11.494 2.52484C11.1694 2.46336 10.8335 2.53173 10.5587 2.71525C10.2839 2.89877 10.092 3.18279 10.0244 3.50625L7.52457 16.0055C7.49214 16.1664 7.49183 16.3322 7.52365 16.4933C7.55546 16.6544 7.61878 16.8076 7.70997 16.9441C7.80116 17.0807 7.91842 17.1978 8.05502 17.289C8.19162 17.3801 8.34486 17.4433 8.50596 17.475C8.58708 17.4917 8.66971 17.4999 8.75253 17.4994C9.04121 17.499 9.32082 17.3985 9.5438 17.2152C9.76678 17.0318 9.91936 16.7769 9.97559 16.4938L12.4754 3.99448C12.5079 3.83351 12.5082 3.66773 12.4764 3.50663C12.4446 3.34554 12.3813 3.19232 12.2901 3.05577C12.1989 2.91921 12.0816 2.80201 11.945 2.7109C11.8084 2.61979 11.6552 2.55656 11.494 2.52484Z"/>
    <path d="M19.7089 9.19923L16.5841 5.44946C16.4792 5.32245 16.3503 5.21741 16.2048 5.14038C16.0592 5.06336 15.8999 5.01586 15.7359 5.00063C15.5719 4.98539 15.4065 5.00272 15.2493 5.05161C15.092 5.10051 14.946 5.18 14.8195 5.28553C14.6931 5.39105 14.5888 5.52053 14.5126 5.66651C14.4363 5.81249 14.3897 5.97209 14.3754 6.13615C14.361 6.30021 14.3793 6.46549 14.429 6.62247C14.4788 6.77946 14.5591 6.92506 14.6653 7.05091L17.1236 10L14.6652 12.949C14.559 13.0749 14.4787 13.2205 14.429 13.3775C14.3792 13.5345 14.361 13.6997 14.3753 13.8638C14.3897 14.0279 14.4363 14.1875 14.5125 14.3334C14.5887 14.4794 14.693 14.6089 14.8195 14.7144C14.9459 14.82 15.092 14.8994 15.2492 14.9483C15.4065 14.9972 15.5718 15.0146 15.7358 14.9993C15.8998 14.9841 16.0591 14.9366 16.2047 14.8596C16.3503 14.7825 16.4792 14.6775 16.584 14.5505L19.7089 10.8007C19.8969 10.5762 20 10.2928 20 9.99996C20 9.70714 19.8969 9.42367 19.7089 9.19923Z"/>
  </g>
  <defs>
    <clipPath id="clip0_468_230">
      <rect width="20" height="20" fill="currentColor" />
    </clipPath>
  </defs>
</svg>
