<svg width="20" height="20" viewBox="0 0 20 20" fill="none" xmlns="http://www.w3.org/2000/svg">
  <g fill="currentColor">
    <path d="M8.61045 20C7.99287 20 7.4228 19.7625 6.99525 19.3349L0.676959 13.0166C-0.225653 12.114 -0.225653 10.6888 0.676959 9.78622L9.13301 1.33016C9.89311 0.570065 11.2708 0 12.3159 0H17.7316C18.9667 0 20.0119 1.04512 20.0119 2.28028V7.69597C20.0119 8.7411 19.4418 10.1188 18.6817 10.8789L10.2257 19.3349C9.7981 19.7625 9.22803 20 8.61045 20ZM12.3159 1.42518C11.6508 1.42518 10.6057 1.85273 10.1306 2.32779L1.67458 10.7839C1.34204 11.1164 1.34204 11.639 1.67458 11.9715L7.99287 18.2898C8.32541 18.6223 8.89548 18.6223 9.18052 18.2898L17.6366 9.83373C18.1116 9.35867 18.5392 8.36105 18.5392 7.64846V2.23278C18.5392 1.75773 18.1591 1.37767 17.6841 1.37767H12.3159V1.42518Z" />
    <path d="M14.3112 8.50361C12.791 8.50361 11.5083 7.26845 11.5083 5.70076C11.5083 4.18057 12.7435 2.89791 14.3112 2.89791C15.8313 2.89791 17.114 4.13306 17.114 5.70076C17.114 7.22095 15.8788 8.50361 14.3112 8.50361ZM14.3112 4.22807C13.5036 4.22807 12.8385 4.89316 12.8385 5.70076C12.8385 6.50836 13.5036 7.17345 14.3112 7.17345C15.1188 7.17345 15.7838 6.50836 15.7838 5.70076C15.7838 4.89316 15.1188 4.22807 14.3112 4.22807Z"/>
  </g>
</svg>
