<svg width="20" height="20" viewBox="0 0 20 20" fill="none" xmlns="http://www.w3.org/2000/svg">
  <g clip-path="url(#clip0_468_220)" fill="currentColor">
    <path d="M17.5 3.75L11.7675 3.75L3.0175 12.5L8.75 18.2325L17.5 9.4825V3.75ZM17.5 2.5C17.8315 2.5 18.1495 2.6317 18.3839 2.86612C18.6183 3.10054 18.75 3.41848 18.75 3.75V9.4825C18.7499 9.81399 18.6182 10.1319 18.3838 10.3663L9.63375 19.1163C9.39934 19.3506 9.08146 19.4822 8.75 19.4822C8.41854 19.4822 8.10066 19.3506 7.86625 19.1163L2.13375 13.3837C1.89941 13.1493 1.76777 12.8315 1.76777 12.5C1.76777 12.1685 1.89941 11.8507 2.13375 11.6163L10.8837 2.86625C11.1181 2.63181 11.436 2.50007 11.7675 2.5L17.5 2.5Z"/>
    <path d="M13.75 6.875C13.75 6.70924 13.8158 6.55027 13.9331 6.43306C14.0503 6.31585 14.2092 6.25 14.375 6.25C14.5408 6.25 14.6997 6.31585 14.8169 6.43306C14.9342 6.55027 15 6.70924 15 6.875C15 7.04076 14.9342 7.19973 14.8169 7.31694C14.6997 7.43415 14.5408 7.5 14.375 7.5C14.2092 7.5 14.0503 7.43415 13.9331 7.31694C13.8158 7.19973 13.75 7.04076 13.75 6.875ZM12.5 6.875C12.5 7.37228 12.6975 7.84919 13.0492 8.20083C13.4008 8.55246 13.8777 8.75 14.375 8.75C14.8723 8.75 15.3492 8.55246 15.7008 8.20083C16.0525 7.84919 16.25 7.37228 16.25 6.875C16.25 6.37772 16.0525 5.90081 15.7008 5.54917C15.3492 5.19754 14.8723 5 14.375 5C13.8777 5 13.4008 5.19754 13.0492 5.54917C12.6975 5.90081 12.5 6.37772 12.5 6.875ZM11.1425 1.25C10.811 1.25007 10.4931 1.38181 10.2587 1.61625L0.9375 10.9375L0.883749 10.8837C0.64941 10.6493 0.517767 10.3315 0.517767 10C0.517767 9.66854 0.64941 9.35066 0.883749 9.11625L9.63375 0.36625C9.86812 0.131813 10.186 7.07968e-05 10.5175 0L16.25 0C16.5815 0 16.8995 0.131696 17.1339 0.366117C17.3683 0.600537 17.5 0.918479 17.5 1.25L11.1425 1.25Z"/>
  </g>
  <defs>
    <clipPath id="clip0_468_220">
      <rect width="20" height="20" fill="currenColor" transform="translate(20) rotate(90)"/>
    </clipPath>
  </defs>
</svg>