<svg width="17" height="16" viewBox="0 0 17 16" fill="none" xmlns="http://www.w3.org/2000/svg">
  <g clip-path="url(#clip0_279_1230)">
    <path fill-rule="evenodd" clip-rule="evenodd" d="M4.28099 0C2.27268 0 0.644623 1.62806 0.644623 3.63636C0.644623 5.64468 2.27268 7.27273 4.28099 7.27273C6.28931 7.27273 7.91735 5.64468 7.91735 3.63636C7.91735 1.62806 6.28931 0 4.28099 0ZM2.09917 3.63636C2.09917 2.43137 3.076 1.45455 4.28099 1.45455C5.48598 1.45455 6.4628 2.43137 6.4628 3.63636C6.4628 4.84135 5.48598 5.81818 4.28099 5.81818C3.076 5.81818 2.09917 4.84135 2.09917 3.63636ZM13.0083 0C11 0 9.3719 1.62806 9.3719 3.63636C9.3719 5.64468 11 7.27273 13.0083 7.27273C15.0166 7.27273 16.6446 5.64468 16.6446 3.63636C16.6446 1.62806 15.0166 0 13.0083 0ZM10.8264 3.63636C10.8264 2.43137 11.8033 1.45455 13.0083 1.45455C14.2132 1.45455 15.1901 2.43137 15.1901 3.63636C15.1901 4.84135 14.2132 5.81818 13.0083 5.81818C11.8033 5.81818 10.8264 4.84135 10.8264 3.63636ZM0.644623 12.3636C0.644623 10.3553 2.27268 8.72727 4.28099 8.72727C6.28931 8.72727 7.91735 10.3553 7.91735 12.3636C7.91735 14.3719 6.28931 16 4.28099 16C2.27268 16 0.644623 14.3719 0.644623 12.3636ZM4.28099 10.1818C3.076 10.1818 2.09917 11.1586 2.09917 12.3636C2.09917 13.5686 3.076 14.5455 4.28099 14.5455C5.48598 14.5455 6.4628 13.5686 6.4628 12.3636C6.4628 11.1586 5.48598 10.1818 4.28099 10.1818ZM13.0083 8.72727C11 8.72727 9.3719 10.3553 9.3719 12.3636C9.3719 14.3719 11 16 13.0083 16C15.0166 16 16.6446 14.3719 16.6446 12.3636C16.6446 10.3553 15.0166 8.72727 13.0083 8.72727ZM10.8264 12.3636C10.8264 11.1586 11.8033 10.1818 13.0083 10.1818C14.2132 10.1818 15.1901 11.1586 15.1901 12.3636C15.1901 13.5686 14.2132 14.5455 13.0083 14.5455C11.8033 14.5455 10.8264 13.5686 10.8264 12.3636Z" fill="currentColor"/>
  </g>
  <defs>
    <clipPath id="clip0_279_1230">
      <rect width="16" height="16" fill="white" transform="translate(0.644653)"/>
    </clipPath>
  </defs>
</svg>
