<svg width="17" height="16" viewBox="0 0 17 16" fill="none" xmlns="http://www.w3.org/2000/svg">
  <path d="M13.5677 16H3.72156C2.90552 16 2.12289 15.676 1.54586 15.0991C0.968827 14.5223 0.644653 13.7399 0.644653 12.9242V4.31177C0.644653 4.14861 0.709488 3.99214 0.824894 3.87677C0.940301 3.76141 1.09683 3.69659 1.26004 3.69659H13.5677C14.3837 3.69659 15.1663 4.02066 15.7434 4.59749C16.3204 5.17433 16.6446 5.95668 16.6446 6.77245V12.9242C16.6446 13.7399 16.3204 14.5223 15.7434 15.0991C15.1663 15.676 14.3837 16 13.5677 16ZM1.87542 4.92694V12.9242C1.87542 13.4136 2.06992 13.883 2.41614 14.2291C2.76236 14.5752 3.23193 14.7697 3.72156 14.7697H13.5677C14.0573 14.7697 14.5269 14.5752 14.8731 14.2291C15.2193 13.883 15.4138 13.4136 15.4138 12.9242V6.77245C15.4138 6.28299 15.2193 5.81358 14.8731 5.46748C14.5269 5.12137 14.0573 4.92694 13.5677 4.92694H1.87542Z" fill="currentColor"/>
  <path d="M14.7985 4.92688C14.6353 4.92688 14.4788 4.86207 14.3634 4.7467C14.248 4.63133 14.1831 4.47486 14.1831 4.31171V2.61999C14.1949 2.40448 14.1579 2.1891 14.0748 1.98991C13.9916 1.79072 13.8646 1.61287 13.7031 1.46961C13.558 1.36095 13.3901 1.28674 13.212 1.25264C13.0339 1.21853 12.8504 1.22541 12.6754 1.27276L2.35548 3.61656C2.21666 3.64782 2.09297 3.72619 2.00545 3.83835C1.91794 3.95052 1.87201 4.08953 1.87549 4.23174C1.87549 4.39489 1.81065 4.55136 1.69524 4.66673C1.57984 4.78209 1.42331 4.84691 1.2601 4.84691C1.09689 4.84691 0.940369 4.78209 0.824963 4.66673C0.709556 4.55136 0.644721 4.39489 0.644721 4.23174C0.641111 3.8112 0.781288 3.40204 1.04204 3.07201C1.3028 2.74199 1.66849 2.51089 2.07856 2.41698L12.4047 0.0731748C12.7598 -0.0165938 13.1308 -0.0239043 13.4892 0.0518035C13.8476 0.127511 14.1839 0.284228 14.4724 0.509947C14.7774 0.768713 15.0203 1.09267 15.1833 1.45788C15.3462 1.82309 15.425 2.22024 15.4139 2.61999V4.31171C15.4139 4.47486 15.3491 4.63133 15.2336 4.7467C15.1182 4.86207 14.9617 4.92688 14.7985 4.92688Z" fill="currentColor"/>
  <path d="M16.0293 12.309H11.7216C11.0688 12.309 10.4427 12.0498 9.98104 11.5883C9.51941 11.1269 9.26007 10.501 9.26007 9.84835C9.26007 9.19574 9.51941 8.56985 9.98104 8.10838C10.4427 7.64692 11.0688 7.38766 11.7216 7.38766H16.0293C16.1925 7.38766 16.349 7.45248 16.4644 7.56784C16.5798 7.68321 16.6447 7.83968 16.6447 8.00284V11.6939C16.6447 11.857 16.5798 12.0135 16.4644 12.1289C16.349 12.2442 16.1925 12.309 16.0293 12.309ZM11.7216 8.61801C11.3952 8.61801 11.0821 8.74763 10.8513 8.97837C10.6205 9.2091 10.4908 9.52204 10.4908 9.84835C10.4908 10.1747 10.6205 10.4876 10.8513 10.7183C11.0821 10.9491 11.3952 11.0787 11.7216 11.0787H15.4139V8.61801H11.7216Z" fill="currentColor"/>
</svg>
