<svg width="141" height="30" viewBox="0 0 141 30" fill="none" xmlns="http://www.w3.org/2000/svg">
<path d="M14.75 14.5V14.6459L14.877 14.7176L25.998 21.0034L14.4933 27.7145L3.25 21.8485V7.65155L14.3556 1.85733L14.75 3.04057V14.5Z" fill="#8CB880" stroke="#F7F8F9" stroke-width="0.5"/>
<path d="M27.3134 6.45037L27.3488 6.46918C27.5455 6.58661 27.7097 6.75179 27.826 6.94971C27.9499 7.16061 28.0149 7.40093 28.0141 7.64554V7.64633V20.8956C28.0077 21.4483 27.8545 21.9893 27.57 22.4632C27.2856 22.9369 26.8804 23.3264 26.3959 23.5918L14.9826 29.59C14.7722 29.6952 14.5403 29.75 14.305 29.75C14.0701 29.75 13.8383 29.6953 13.6281 29.5904L2.38039 23.5916L2.3788 23.5907C1.88826 23.3336 1.47796 22.9464 1.19289 22.4715C0.907812 21.9967 0.758958 21.4525 0.762647 20.8987V20.897V7.72966H0.762892L0.762403 7.71861C0.750758 7.45545 0.817915 7.19479 0.955278 6.97002C1.09264 6.74524 1.29396 6.56657 1.53346 6.45688L1.54015 6.45382L1.54665 6.45037L12.2122 0.784309C12.8987 0.43313 13.6589 0.25 14.43 0.25C15.2012 0.25 15.9613 0.433126 16.6479 0.784295C16.6484 0.784581 16.649 0.784867 16.6496 0.785152L27.3134 6.45037ZM28.2641 20.897V7.64633L26.514 23.8122C27.0383 23.5254 27.4767 23.1042 27.7843 22.5919C28.0919 22.0795 28.2575 21.4946 28.2641 20.897ZM12.6465 25.785L13.0133 25.9788V25.5639V15.1451V14.9956L12.8817 14.9249L4.04786 10.1763L3.67949 9.97825V10.3965V20.897V21.0477L3.81271 21.1181L12.6465 25.785ZM14.3123 12.4504L14.4295 12.513L14.5469 12.4509L23.214 7.86733L23.6307 7.64697L23.2146 7.42561L15.3808 3.25872L15.3809 3.25866L15.3756 3.256C15.0951 3.11523 14.7856 3.04193 14.4717 3.04193C14.1579 3.04193 13.8484 3.11523 13.5679 3.256L13.5678 3.25594L13.5626 3.25872L5.72886 7.42561L5.31471 7.6459L5.7285 7.86686L14.3123 12.4504ZM25.0474 21.1181L25.1806 21.0477V20.897V10.4798V10.065L24.8138 10.2588L15.98 14.9257L15.8468 14.9961V15.1467V25.5639V25.9788L16.2136 25.785L25.0474 21.1181Z" fill="#04795B" stroke="#F7F8F9" stroke-width="0.5"/>
<path d="M49.9219 20.0244C49.9219 20.1885 49.8896 20.3408 49.8252 20.4814C49.7666 20.6221 49.6846 20.7451 49.5791 20.8506C49.4795 20.9502 49.3594 21.0293 49.2188 21.0879C49.0781 21.1465 48.9287 21.1758 48.7705 21.1758C48.6299 21.1758 48.4863 21.1494 48.3398 21.0967C48.1992 21.0439 48.0732 20.959 47.9619 20.8418L39.6123 12.123V21H37.3271V9.37207C37.3271 9.1377 37.3916 8.92676 37.5205 8.73926C37.6553 8.5459 37.8252 8.40234 38.0303 8.30859C38.2471 8.2207 38.4697 8.2002 38.6982 8.24707C38.9268 8.28809 39.123 8.39355 39.2871 8.56348L47.6367 17.2734V8.39648H49.9219V20.0244ZM62.9473 15.8496H55.7314V13.5469H62.9473V15.8496ZM63.9756 21H55.7314C55.415 21 55.0693 20.9443 54.6943 20.833C54.3193 20.7217 53.9707 20.54 53.6484 20.2881C53.332 20.0303 53.0654 19.6992 52.8486 19.2949C52.6377 18.8848 52.5322 18.3838 52.5322 17.792V9.54785C52.5322 9.38965 52.5615 9.24023 52.6201 9.09961C52.6787 8.95898 52.7578 8.83594 52.8574 8.73047C52.9629 8.625 53.0859 8.54297 53.2266 8.48438C53.3672 8.42578 53.5195 8.39648 53.6836 8.39648H63.9756V10.6816H54.8174V17.792C54.8174 18.0908 54.8965 18.3193 55.0547 18.4775C55.2129 18.6357 55.4443 18.7148 55.749 18.7148H63.9756V21ZM77.5811 10.6816H72.5449V21H70.2598V10.6816H65.2148V8.39648H77.5811V10.6816ZM95.3613 8.39648L93.252 20.209C93.2051 20.4434 93.0996 20.6455 92.9355 20.8154C92.7715 20.9854 92.5723 21.0938 92.3379 21.1406C92.0977 21.1816 91.8691 21.1553 91.6523 21.0615C91.4414 20.9678 91.2744 20.8213 91.1514 20.6221L86.9678 13.749L82.7754 20.6221C82.6758 20.792 82.5381 20.9238 82.3623 21.0176C82.1924 21.1113 82.0078 21.1582 81.8086 21.1582C81.5332 21.1582 81.29 21.0703 81.0791 20.8945C80.8682 20.7188 80.7393 20.4902 80.6924 20.209L78.5654 8.39648H80.8857L82.3975 16.7197L86.001 10.9717C86.1006 10.8018 86.2354 10.6699 86.4053 10.5762C86.5811 10.4824 86.7686 10.4355 86.9678 10.4355C87.167 10.4355 87.3516 10.4824 87.5215 10.5762C87.6914 10.6699 87.832 10.8018 87.9434 10.9717L91.5293 16.7197L93.041 8.39648H95.3613ZM110.443 15.9023C110.443 16.6699 110.312 17.376 110.048 18.0205C109.784 18.665 109.418 19.2217 108.949 19.6904C108.48 20.1592 107.924 20.5254 107.279 20.7891C106.641 21.0469 105.943 21.1758 105.188 21.1758H102.094C101.338 21.1758 100.638 21.0469 99.9932 20.7891C99.3486 20.5254 98.792 20.1592 98.3232 19.6904C97.8545 19.2217 97.4854 18.665 97.2158 18.0205C96.9521 17.376 96.8203 16.6699 96.8203 15.9023V13.4941C96.8203 12.7324 96.9521 12.0293 97.2158 11.3848C97.4854 10.7344 97.8545 10.1777 98.3232 9.71484C98.792 9.24609 99.3486 8.87988 99.9932 8.61621C100.638 8.35254 101.338 8.2207 102.094 8.2207H105.188C105.943 8.2207 106.641 8.35254 107.279 8.61621C107.924 8.87988 108.48 9.24609 108.949 9.71484C109.418 10.1777 109.784 10.7344 110.048 11.3848C110.312 12.0293 110.443 12.7324 110.443 13.4941V15.9023ZM108.158 13.4941C108.158 13.043 108.085 12.6357 107.938 12.2725C107.798 11.9033 107.596 11.5898 107.332 11.332C107.074 11.0684 106.761 10.8662 106.392 10.7256C106.028 10.5791 105.627 10.5059 105.188 10.5059H102.094C101.648 10.5059 101.241 10.5791 100.872 10.7256C100.509 10.8662 100.195 11.0684 99.9316 11.332C99.668 11.5898 99.4629 11.9033 99.3164 12.2725C99.1758 12.6357 99.1055 13.043 99.1055 13.4941V15.9023C99.1055 16.3535 99.1758 16.7637 99.3164 17.1328C99.4629 17.4961 99.668 17.8096 99.9316 18.0732C100.195 18.3311 100.509 18.5332 100.872 18.6797C101.241 18.8203 101.648 18.8906 102.094 18.8906H105.17C105.615 18.8906 106.02 18.8203 106.383 18.6797C106.752 18.5332 107.068 18.3311 107.332 18.0732C107.596 17.8096 107.798 17.4961 107.938 17.1328C108.085 16.7637 108.158 16.3535 108.158 15.9023V13.4941ZM125.297 12.6328C125.297 13.1543 125.232 13.6201 125.104 14.0303C124.975 14.4404 124.799 14.8037 124.576 15.1201C124.359 15.4307 124.107 15.6973 123.82 15.9199C123.533 16.1426 123.231 16.3271 122.915 16.4736C122.604 16.6143 122.288 16.7168 121.966 16.7812C121.649 16.8457 121.351 16.8779 121.069 16.8779L125.842 21H122.309L117.545 16.8779H115.901V14.5928H121.069C121.356 14.5693 121.617 14.5107 121.852 14.417C122.092 14.3174 122.297 14.1855 122.467 14.0215C122.643 13.8574 122.777 13.6611 122.871 13.4326C122.965 13.1982 123.012 12.9316 123.012 12.6328V11.1914C123.012 11.0625 122.994 10.9658 122.959 10.9014C122.93 10.8311 122.889 10.7812 122.836 10.752C122.789 10.7168 122.736 10.6963 122.678 10.6904C122.625 10.6846 122.575 10.6816 122.528 10.6816H114.987V21H112.702V9.54785C112.702 9.38965 112.731 9.24023 112.79 9.09961C112.849 8.95898 112.928 8.83594 113.027 8.73047C113.133 8.625 113.256 8.54297 113.396 8.48438C113.537 8.42578 113.689 8.39648 113.854 8.39648H122.528C123.038 8.39648 123.469 8.49023 123.82 8.67773C124.172 8.85938 124.456 9.09082 124.673 9.37207C124.896 9.64746 125.054 9.94629 125.147 10.2686C125.247 10.5908 125.297 10.8926 125.297 11.1738V12.6328ZM140.801 21H137.558L132.416 15.8496H130.808V13.5469H132.416L137.558 8.39648H140.801L134.323 14.6982L140.801 21ZM129.894 21H127.608V8.39648H129.894V21Z" fill="#04795B"/>
</svg>
